<?xml version="1.0" encoding="UTF-8"?>
<svg width="29px" height="39px" viewBox="0 0 29 39" version="1.1" xmlns="http://www.w3.org/2000/svg" xmlns:xlink="http://www.w3.org/1999/xlink">
    <!-- Generator: Sketch 52.6 (67491) - http://www.bohemiancoding.com/sketch -->
    <title>award</title>
    <desc>Created with Sketch.</desc>
    <g id="Page-1" stroke="none" stroke-width="1" fill="none" fill-rule="evenodd">
        <g id="exports" transform="translate(-625.000000, -38.000000)" fill="#3C394C" fill-rule="nonzero">
            <g id="award" transform="translate(625.000000, 38.000000)">
                <path d="M27.4634734,10.6670602 C26.7107305,9.92266824 26.2916778,8.93270366 26.2916778,7.87367178 C26.2916778,5.01121606 23.9325662,2.67827627 21.0379984,2.67827627 C19.9748461,2.67827627 18.9660155,2.26387249 18.2132727,1.51948052 C16.1645705,-0.506493506 12.8354295,-0.506493506 10.7867273,1.51948052 C10.0339845,2.26387249 9.0329141,2.67827627 7.96200161,2.67827627 C5.06743377,2.67827627 2.70832218,5.01121606 2.70832218,7.87367178 C2.70832218,8.92502952 2.2970297,9.92266824 1.53652663,10.6670602 C0.543216484,11.6493506 0,12.9539551 0,14.3429752 C0,15.7319953 0.543216484,17.0365998 1.53652663,18.0188902 C2.28926947,18.7632822 2.70832218,19.7532468 2.70832218,20.8122786 C2.70832218,23.1682409 4.29917046,25.1558442 6.47203639,25.7927981 L3.42226385,37.0584416 L8.02408349,34.525974 L10.7246454,39 L13.5416109,28.6015348 C13.8597806,28.6552538 14.1779502,28.6859504 14.4961199,28.6859504 C14.8142895,28.6859504 15.1324592,28.6552538 15.4506288,28.6015348 L18.2753546,38.9923259 L20.9759165,34.5182999 L25.5777362,37.0507674 L22.5279636,25.785124 C24.7008295,25.14817 26.2916778,23.1605667 26.2916778,20.8046045 C26.2916778,19.7532468 26.7107305,18.755608 27.4634734,18.0112161 C29.5121755,15.9929162 29.5121755,12.6930342 27.4634734,10.6670602 Z M10.2900723,35.8229044 L8.48969762,32.8453365 L5.4244046,34.5336482 L7.73695478,26 C7.82231737,26.0076741 7.89991972,26.0076741 7.97752208,26.0076741 C9.04067434,26.0076741 10.049505,26.4220779 10.8022478,27.1664699 C10.9264116,27.2892562 11.0505753,27.3966942 11.1824993,27.5041322 C11.2213005,27.5348288 11.2601017,27.5655254 11.2989029,27.596222 C11.3920257,27.6652893 11.4851485,27.7343566 11.5860316,27.8034238 C11.6403532,27.8417946 11.7024351,27.8724911 11.7567568,27.9108619 C11.8421193,27.9569067 11.9197217,28.0106257 12.0050843,28.0566706 C12.0749264,28.0950413 12.1525288,28.133412 12.2223709,28.1641086 C12.2534118,28.1794569 12.2999732,28.2024793 12.3465347,28.2178276 L10.2900723,35.8229044 Z M23.5988761,34.5336482 L20.5335831,32.8453365 L18.7332085,35.8229044 L16.6767461,28.2178276 C16.7233075,28.1948052 16.7621086,28.1717828 16.8086701,28.1564345 C16.8862724,28.1180638 16.9561145,28.0873672 17.0337169,28.0413223 C17.1190795,27.9952774 17.1966818,27.9492326 17.2742842,27.9031877 C17.3363661,27.864817 17.3906877,27.8341204 17.4527696,27.7957497 C17.5458924,27.7343566 17.631255,27.6652893 17.7243778,27.596222 C17.7709393,27.5655254 17.8175007,27.5348288 17.8563018,27.4964581 C17.9882258,27.3890201 18.1123896,27.2815821 18.2365534,27.1587957 C18.9892962,26.4144038 19.9903666,26 21.0612791,26 C21.123361,26.0076741 21.2009633,26 21.2863259,26 L23.5988761,34.5336482 Z M26.5710463,17.1363636 C25.5777362,18.1186541 25.0345197,19.4232586 25.0345197,20.8122786 C25.0345197,22.7154664 23.6687182,24.3040142 21.8528231,24.6800472 L21.651057,24.7107438 C21.5424137,24.7260921 21.4492909,24.7414404 21.3484078,24.7491145 C21.2475248,24.7567887 21.1388815,24.7644628 21.0379984,24.7644628 C20.5103024,24.7644628 19.9981268,24.8412043 19.509232,24.987013 C18.6944073,25.2325856 17.9416644,25.6700118 17.3286058,26.2839433 C17.2199625,26.3913813 17.1113192,26.4834711 16.9949157,26.5755608 C16.9561145,26.6062574 16.9173134,26.6292798 16.8785122,26.6599764 C16.8009098,26.7213695 16.7155472,26.7750885 16.6301846,26.8288076 C16.5913835,26.85183 16.544822,26.8825266 16.4982606,26.905549 C16.4051378,26.959268 16.312015,27.0053129 16.2188922,27.0513577 C16.180091,27.066706 16.14905,27.0820543 16.1102489,27.1050767 C15.9938453,27.1587957 15.8696816,27.2048406 15.753278,27.2432113 C15.7299973,27.2508855 15.6989564,27.2662338 15.6756757,27.2739079 L15.6291143,27.2892562 C14.8996521,27.4964581 14.1158683,27.4964581 13.3864062,27.2892562 L13.3243243,27.2739079 C13.3010436,27.2662338 13.2855231,27.2585596 13.2622424,27.2508855 C13.1380787,27.2125148 13.0139149,27.1587957 12.8897511,27.1127509 C12.8587102,27.0974026 12.819909,27.0820543 12.7888681,27.066706 C12.687985,27.0206612 12.5948622,26.9669421 12.5017394,26.9132231 C12.4629382,26.8902007 12.424137,26.8671783 12.3853358,26.8441558 C12.292213,26.7904368 12.2068504,26.7290437 12.1214878,26.6676505 C12.0904469,26.6446281 12.0516457,26.6216057 12.0206048,26.5909091 C11.9042012,26.4988194 11.7955579,26.3990555 11.6869146,26.2992916 C11.0660958,25.6853601 10.3211132,25.2479339 9.50628847,25.0023613 C9.01739363,24.8565525 8.50521809,24.7798111 7.97752208,24.7798111 C7.86887878,24.7798111 7.76799572,24.772137 7.66711266,24.7644628 C7.57398983,24.7567887 7.47310677,24.7414404 7.36446347,24.7260921 L7.16269735,24.6953955 C5.34680225,24.3193625 3.9810008,22.7308146 3.9810008,20.8276269 C3.9810008,19.4386068 3.43778432,18.1340024 2.44447418,17.1517119 C1.69173134,16.40732 1.27267862,15.4173554 1.27267862,14.3583235 C1.27267862,13.3069658 1.69173134,12.309327 2.44447418,11.5649351 C3.43778432,10.5826446 3.9810008,9.27804014 3.9810008,7.88902007 C3.9810008,5.70956316 5.7736152,3.94451004 7.96976184,3.94451004 C9.37436446,3.94451004 10.6936045,3.40731995 11.6869146,2.42502952 C12.4629382,1.65761511 13.4872893,1.27390791 14.5116404,1.27390791 C15.5359914,1.27390791 16.5603425,1.65761511 17.3363661,2.42502952 C18.3296762,3.40731995 19.6489162,3.94451004 21.0535189,3.94451004 C23.2574257,3.94451004 25.0422799,5.71723731 25.0422799,7.88902007 C25.0422799,9.27804014 25.5854964,10.5826446 26.5788065,11.5649351 C28.1308536,13.0920897 28.1308536,15.5938607 26.5710463,17.1363636 Z" id="Shape"></path>
                <path d="M14.5,6 C9.26292043,6 5,10.0402134 5,15.0036931 C5,19.9671728 9.26292043,24 14.5,24 C19.7370796,24 24,19.9597866 24,14.9963069 C24,10.0328272 19.7370796,6 14.5,6 Z M14.5,22.7960607 C9.96431501,22.7960607 6.27030353,19.2950349 6.27030353,14.9963069 C6.27030353,10.697579 9.96431501,7.19655314 14.5,7.19655314 C19.035685,7.19655314 22.7296965,10.697579 22.7296965,14.9963069 C22.7296965,19.2950349 19.035685,22.7960607 14.5,22.7960607 Z" id="Shape"></path>
                <path d="M14.9960963,8 L13.5829538,12.201232 L9,12.201232 L12.7085231,14.798768 L11.2953806,19 L15.0039037,16.4024641 L18.7124268,19 L17.2914769,14.798768 L21,12.201232 L16.4170462,12.201232 L14.9960963,8 Z M16.2921275,15.8001369 L14.9960963,14.889117 L13.7000651,15.8001369 L14.1919323,14.3319644 L12.8959011,13.4209446 L14.4964216,13.4209446 L14.9882889,11.9527721 L15.4801561,13.4209446 L17.0806766,13.4209446 L15.7846454,14.3319644 L16.2921275,15.8001369 Z" id="Shape"></path>
            </g>
        </g>
    </g>
</svg>