<?xml version="1.0" encoding="UTF-8"?>
<svg width="35px" height="30px" viewBox="0 0 35 30" version="1.1" xmlns="http://www.w3.org/2000/svg" xmlns:xlink="http://www.w3.org/1999/xlink">
    <!-- Generator: Sketch 52.6 (67491) - http://www.bohemiancoding.com/sketch -->
    <title>briefcase</title>
    <desc>Created with Sketch.</desc>
    <g id="Page-1" stroke="none" stroke-width="1" fill="none" fill-rule="evenodd">
        <g id="exports" transform="translate(-714.000000, -47.000000)" fill="#3C394C">
            <g id="briefcase" transform="translate(714.000000, 47.000000)">
                <path d="M33.2142423,16 C32.7428012,16 32.4285521,16.3294442 32.4285521,16.8235044 L32.4285521,27.5294159 C32.4285521,28.0235469 32.1142356,28.3529204 31.642862,28.3529204 L3.35707051,28.3529204 C2.8856294,28.3529204 2.57138034,28.0234761 2.57138034,27.5294159 L2.57138034,16.8235044 C2.57138034,16.3293735 2.25706376,16 1.78569017,16 C1.31431658,16 1,16.3294442 1,16.8235044 L1,27.5294159 C1,28.9294301 2.02141073,30 3.35713803,30 L31.642862,30 C32.9785893,30 34,28.9294301 34,27.5294159 L34,16.8235044 C34,16.3293735 33.6856834,16 33.2142423,16 Z" id="Path"></path>
                <path d="M32.6136426,6 L2.38635742,6 C1.03407227,6 0,6.97498775 0,8.25000645 L0,13.0500503 C0,14.0999974 0.795429687,15.0000258 1.82957031,15.2250329 L14.3182129,17.8500296 L14.3182129,20.2500193 C14.3182129,20.7000335 14.6364258,21 15.1136426,21 L19.8863574,21 C20.3636426,21 20.6817871,20.6999691 20.6817871,20.2500193 L20.6817871,17.8500296 L33.1704297,15.2250329 C34.2045703,15.0000258 35,14.0999974 35,13.0499858 L35,8.24994199 C35,6.97498775 33.9659277,6 32.6136426,6 Z M19.0909277,19.5000387 L15.9091406,19.5000387 L15.9091406,16.5000516 L19.0909277,16.5000516 L19.0909277,19.5000387 Z M33.4090723,13.0499858 C33.4090723,13.4249762 33.1704297,13.7250071 32.7727148,13.7999665 L20.6817871,16.3500039 L20.6817871,15.7500064 C20.6817871,15.2999923 20.3635742,15.0000258 19.8863574,15.0000258 L15.1136426,15.0000258 C14.6363574,15.0000258 14.3182129,15.3000567 14.3182129,15.7500064 L14.3182129,16.3500039 L2.22728516,13.8000309 C1.82957031,13.7250071 1.59092773,13.4250406 1.59092773,13.0500503 L1.59092773,8.25000645 C1.59092773,7.79999227 1.90914062,7.50002578 2.38635742,7.50002578 L32.6136426,7.50002578 C33.0909277,7.50002578 33.4090723,7.80005672 33.4090723,8.25000645 L33.4090723,13.0499858 Z" id="Shape" fill-rule="nonzero"></path>
                <path d="M21.5626222,0 L13.4375175,0 C12.0562413,0 11,1.03999587 11,2.4000275 L11,3.20001375 C11,3.680033 11.3250349,4 11.8124825,4 C12.2999302,4 12.6249651,3.67996425 12.6249651,3.20001375 L12.6249651,2.4000275 C12.6249651,1.92000825 12.95,1.60004125 13.4374476,1.60004125 L21.5625524,1.60004125 C22.0500698,1.60004125 22.3750349,1.920077 22.3750349,2.4000275 L22.3750349,3.20001375 C22.3750349,3.680033 22.7000698,4 23.1875175,4 C23.6750349,4 24,3.67996425 24,3.20001375 L24,2.4000275 C24.0001396,1.03999587 22.9438984,0 21.5626222,0 Z" id="Path"></path>
            </g>
        </g>
    </g>
</svg>