<?xml version="1.0" encoding="UTF-8"?>
<svg width="52px" height="36px" viewBox="0 0 52 36" version="1.1" xmlns="http://www.w3.org/2000/svg" xmlns:xlink="http://www.w3.org/1999/xlink">
    <!-- Generator: Sketch 52.6 (67491) - http://www.bohemiancoding.com/sketch -->
    <title>email</title>
    <desc>Created with Sketch.</desc>
    <g id="Page-1" stroke="none" stroke-width="1" fill="none" fill-rule="evenodd">
        <g id="exports" transform="translate(-183.000000, -41.000000)" fill="#637D79" fill-rule="nonzero">
            <g id="email" transform="translate(183.000000, 41.000000)">
                <path d="M47.4296875,0 L4.5703125,0 C2.05024219,0 0,2.07174827 0,4.61825293 L0,31.3817471 C0,33.9282517 2.05024219,36 4.5703125,36 L47.4296875,36 C49.9497578,36 52,33.9282517 52,31.3817471 L52,4.61825293 C52,2.07174827 49.9497578,0 47.4296875,0 Z M46.8332109,3.07883529 L46.2232266,3.59207713 L27.8132969,19.0828264 C26.7625312,19.9668626 25.2372656,19.9668626 24.1867031,19.0828264 L5.77677344,3.59207713 L5.16678906,3.07883529 L46.8332109,3.07883529 Z M3.046875,5.30154911 L18.0468437,17.9230291 L3.046875,28.0106277 L3.046875,5.30154911 Z M47.4296875,32.9211647 L4.5703125,32.9211647 C3.8341875,32.9211647 3.21851563,32.390784 3.07744531,31.6885017 L20.4898281,19.9785622 L22.2371094,21.4488087 C23.3272813,22.3660963 24.6637422,22.8247402 26.0001016,22.8247402 C27.3364609,22.8247402 28.6728203,22.3660963 29.7630938,21.4488087 L31.510375,19.9785622 L48.9226563,31.6883991 C48.7814844,32.3908866 48.1658125,32.9211647 47.4296875,32.9211647 Z M48.953125,28.0106277 L33.9531563,17.9231317 L48.953125,5.30154911 L48.953125,28.0106277 Z" id="Shape"></path>
            </g>
        </g>
    </g>
</svg>