<?xml version="1.0" encoding="UTF-8"?>
<svg width="30px" height="30px" viewBox="0 0 30 30" version="1.1" xmlns="http://www.w3.org/2000/svg" xmlns:xlink="http://www.w3.org/1999/xlink">
    <!-- Generator: Sketch 52.6 (67491) - http://www.bohemiancoding.com/sketch -->
    <title>github</title>
    <desc>Created with Sketch.</desc>
    <g id="Page-1" stroke="none" stroke-width="1" fill="none" fill-rule="evenodd">
        <g id="exports" transform="translate(-121.000000, -22.000000)" fill="#C7C7C7">
            <g id="github" transform="translate(121.000000, 22.000000)">
                <path d="M14.9712586,0 C6.68698128,0.0159375 -0.0158507518,6.74449219 2.81544694e-05,15.0287695 C0.0134461232,22.0351172 4.87537972,28.0988672 11.7112196,29.6350195 C12.0482508,29.7095508 12.3818836,29.4967969 12.4564735,29.1597656 C12.4662586,29.1155273 12.4712391,29.0703516 12.4712391,29.025 L12.4712391,25.6249805 C12.4712391,25.2798047 12.1913953,24.9999609 11.8462196,24.9999609 L10.5962391,24.9999609 C9.03623909,24.9999609 7.97123909,23.5212305 7.03748909,22.2162305 L6.74996956,21.8187305 C7.1704969,22.0536328 7.57245003,22.3202344 7.95248909,22.61625 C8.65573128,23.2711523 9.56059456,23.667832 10.5187196,23.74125 C11.4609657,23.8723828 12.3310828,23.2149023 12.4622157,22.2726562 C12.4805555,22.1408789 12.4835438,22.0074609 12.4711805,21.8749805 L12.4711805,21.43875 C12.4712391,21.1594922 12.2860242,20.914043 12.0174305,20.8375195 C8.54991097,19.85625 6.22116097,17.2587891 6.22116097,14.3750391 C6.24700081,12.8147461 6.88702034,11.3276367 8.00241097,10.2362695 C8.18246956,10.0507031 8.22963753,9.7734375 8.1211805,9.53876953 C7.6664344,8.50892578 7.73481331,7.32322266 8.3049305,6.3525 C9.18231331,6.70587891 9.96635628,7.25683594 10.5961805,7.96248047 C10.7656922,8.16363281 11.043075,8.23710938 11.2899305,8.14623047 C13.6703602,7.28794922 16.2757899,7.28794922 18.656161,8.14623047 C18.9019617,8.23535156 19.1772352,8.16199219 19.346161,7.96248047 C19.9754578,7.25648437 20.7590907,6.70511719 21.6361805,6.35121094 C22.2062977,7.32193359 22.2746766,8.50763672 21.8199305,9.53748047 C21.7114149,9.77214844 21.7586414,10.0494141 21.9387,10.2349805 C23.0548524,11.3264062 23.6953992,12.8141016 23.7211805,14.3749805 C23.7211805,17.4024609 21.134911,20.1137109 17.429911,20.9674805 C17.0935242,21.0448242 16.8834657,21.3802148 16.9608094,21.7166016 C16.9729969,21.7695703 16.9919813,21.8206641 17.017411,21.8687109 C17.3675672,22.655625 17.5231922,23.5152539 17.471161,24.3749414 L17.471161,29.0249414 C17.471161,29.3701172 17.7510047,29.6499609 18.0961805,29.6499609 C18.1415907,29.6497852 18.186825,29.6447461 18.2311805,29.6349609 C26.3138953,27.8186133 31.3937977,19.7938477 29.57745,11.7111914 C28.0413563,4.87535156 21.9776063,0.0134765625 14.9712586,0 Z" id="Path"></path>
            </g>
        </g>
    </g>
</svg>