<?xml version="1.0" encoding="UTF-8"?>
<svg width="79px" height="77px" viewBox="0 0 79 77" version="1.1" xmlns="http://www.w3.org/2000/svg" xmlns:xlink="http://www.w3.org/1999/xlink">
    <!-- Generator: Sketch 52.6 (67491) - http://www.bohemiancoding.com/sketch -->
    <title>github-purple</title>
    <desc>Created with Sketch.</desc>
    <g id="Page-1" stroke="none" stroke-width="1" fill="none" fill-rule="evenodd">
        <g id="exports" transform="translate(-295.000000, 0.000000)" fill="#D3CFEA">
            <g id="github-purple" transform="translate(295.000000, -2.000000)">
                <path d="M39.4243144,0 C17.6090507,0.04196875 -0.041740313,17.7604961 7.41401027e-05,39.5757598 C0.0354081245,58.0258086 12.8384999,73.9936836 30.8395448,78.0388848 C31.7270605,78.2351504 32.6056269,77.6748984 32.8020468,76.7873828 C32.8278144,76.6708887 32.8409296,76.5519258 32.8409296,76.4325 L32.8409296,67.4791152 C32.8409296,66.5701523 32.1040077,65.8332305 31.1950448,65.8332305 L27.9034296,65.8332305 C23.7954296,65.8332305 20.9909296,61.9392402 18.5320546,58.5027402 L17.7749198,57.4559902 C18.8823085,58.0745664 19.9407851,58.7766172 20.9415546,59.556125 C22.7934257,61.2807012 25.1762323,62.325291 27.6992948,62.518625 C30.1805429,62.8639414 32.4718515,61.1325762 32.8171679,58.6513281 C32.8654628,58.3043145 32.873332,57.9529805 32.8407753,57.6041152 L32.8407753,56.455375 C32.8409296,55.7199961 32.3531972,55.0736465 31.6459003,54.8721348 C22.5147655,52.288125 16.3823905,45.4481445 16.3823905,37.8542695 C16.4504355,33.745498 18.1358202,29.8294434 21.0730155,26.9555098 C21.5471698,26.4668516 21.6713788,25.7367187 21.3857753,25.1187598 C20.1882773,22.4068379 20.3683417,19.2844863 21.8696503,16.72825 C24.1800917,17.6588145 26.2447382,19.109668 27.9032753,20.9678652 C28.3496562,21.4975664 29.0800976,21.6910547 29.7301503,21.4517402 C35.9986152,19.1915996 42.85958,19.1915996 49.1278905,21.4517402 C49.7751659,21.6864258 50.5000527,21.4932461 50.9448905,20.9678652 C52.602039,19.1087422 54.6656054,17.6568086 56.9752753,16.7248555 C58.4765839,19.2810918 58.6566484,22.4034434 57.4591503,25.1153652 C57.1733925,25.7333242 57.2977558,26.463457 57.7719101,26.9521152 C60.7111112,29.8262031 62.3978847,33.7438008 62.4657753,37.8541152 C62.4657753,45.8264805 55.6552655,52.9661055 45.8987655,55.2143652 C45.0129472,55.4180371 44.4597929,56.3012324 44.6634648,57.1870508 C44.6955585,57.3265352 44.7455507,57.461082 44.8125155,57.5876055 C45.7345937,59.6598125 46.1444062,61.923502 46.0073905,64.1873457 L46.0073905,76.4323457 C46.0073905,77.3413086 46.7443124,78.0782305 47.6532753,78.0782305 C47.7728554,78.0777676 47.8919726,78.064498 48.0087753,78.0387305 C69.2932577,73.2556816 82.6703339,52.1237988 77.8872851,30.8394707 C73.8422382,12.8384258 57.8743632,0.0354882812 39.4243144,0 Z" id="Path"></path>
            </g>
        </g>
    </g>
</svg>