<?xml version="1.0" encoding="UTF-8"?>
<svg width="37px" height="28px" viewBox="0 0 37 28" version="1.1" xmlns="http://www.w3.org/2000/svg" xmlns:xlink="http://www.w3.org/1999/xlink">
    <!-- Generator: Sketch 52.6 (67491) - http://www.bohemiancoding.com/sketch -->
    <title>graduation-cap</title>
    <desc>Created with Sketch.</desc>
    <g id="Page-1" stroke="none" stroke-width="1" fill="none" fill-rule="evenodd">
        <g id="exports" transform="translate(-527.000000, -49.000000)" fill="#3C394C" fill-rule="nonzero">
            <g id="graduation-cap" transform="translate(527.000000, 49.000000)">
                <path d="M35.7709049,7.64019571 L21.021764,0.474219044 C19.7502864,-0.158073015 17.5887743,-0.158073015 16.3172967,0.474219044 L1.22909507,7.64019571 C0.169530355,8.14602936 0,8.86262702 0,9.24200226 C0,9.62137749 0.169530355,10.2958224 1.22909507,10.8438088 L2.45819015,11.4339481 L2.45819015,18.1783967 C1.69530355,18.4734663 1.1443299,19.2322168 1.1443299,20.0752729 C1.1443299,20.9183289 1.69530355,21.6770794 2.41580756,21.972149 L0.508591065,28 L5.84879725,28 L3.94158076,21.972149 C4.70446735,21.6770794 5.21305842,20.9183289 5.21305842,20.0752729 C5.21305842,19.190064 4.66208477,18.4734663 3.89919817,18.1783967 L3.89919817,12.1505457 L6.14547537,13.2465186 L6.14547537,22.0143018 C6.14547537,22.1407603 6.18785796,22.2672187 6.27262314,22.3936771 C6.48453608,22.6465939 10.4261168,28 18.4788087,28 C26.5315006,28 30.4730813,22.6044411 30.6426117,22.3936771 C30.7273769,22.2672187 30.7697595,22.1407603 30.7697595,22.0143018 L30.7697595,13.2886714 L35.7709049,10.8438088 C36.8304696,10.3379752 37,9.62137749 37,9.24200226 C36.9576174,8.86262702 36.8304696,8.14602936 35.7709049,7.64019571 Z M29.4135166,21.8035378 C28.7353952,22.6465939 25.0904926,26.6932631 18.4788087,26.6932631 C11.8671249,26.6932631 8.22222222,22.6465939 7.5441008,21.8035378 L7.5441008,13.8366579 L16.3172967,18.0097855 C16.9530355,18.3048551 17.8006873,18.4734663 18.6483391,18.4734663 C19.5383734,18.4734663 20.3860252,18.3048551 21.021764,17.9676327 L29.4135166,13.8788107 L29.4135166,21.8035378 Z M35.1775487,9.6635303 L30.091638,12.1505457 C29.8797251,12.1505457 29.7101947,12.2348513 29.6254296,12.4034626 L20.4284078,16.829507 C19.5383734,17.2931878 17.8006873,17.2931878 16.8682703,16.829507 L5.55211913,11.4339481 L18.5635739,9.91644712 C18.9450172,9.87429432 19.1993127,9.53707189 19.1569301,9.19984945 C19.1145475,8.82047422 18.7754868,8.5675574 18.4364261,8.6097102 L3.34822451,10.380128 L1.82245132,9.6635303 C1.44100802,9.49491908 1.35624284,9.28415506 1.35624284,9.28415506 C1.35624284,9.24200226 1.44100802,9.07339104 1.82245132,8.90477983 L16.9106529,1.69665036 C17.3768614,1.48588634 18.0126002,1.35942793 18.6483391,1.35942793 C19.3264605,1.35942793 20.0045819,1.48588634 20.4284078,1.69665036 L35.1775487,8.86262702 C35.558992,9.03123824 35.6437572,9.19984945 35.6437572,9.28415506 C35.6437572,9.28415506 35.5166094,9.49491908 35.1775487,9.6635303 Z" id="Shape"></path>
            </g>
        </g>
    </g>
</svg>