<?xml version="1.0" encoding="UTF-8"?>
<svg width="27px" height="27px" viewBox="0 0 27 27" version="1.1" xmlns="http://www.w3.org/2000/svg" xmlns:xlink="http://www.w3.org/1999/xlink">
    <!-- Generator: Sketch 52.6 (67491) - http://www.bohemiancoding.com/sketch -->
    <title>linkedin-square</title>
    <desc>Created with Sketch.</desc>
    <g id="Page-1" stroke="none" stroke-width="1" fill="none" fill-rule="evenodd">
        <g id="exports" transform="translate(-82.000000, -23.000000)" fill="#C7C7C7" fill-rule="nonzero">
            <g id="linkedin-square" transform="translate(82.000000, 23.000000)">
                <path d="M25.052742,-2.69229083e-14 L1.94725798,-2.69229083e-14 C0.871765137,-2.69229083e-14 2.84217094e-14,0.871765137 2.84217094e-14,1.94725798 L2.84217094e-14,25.052742 C2.84217094e-14,26.1282349 0.871765137,27 1.94725798,27 L25.052742,27 C26.1282349,27 27,26.1282349 27,25.052742 L27,1.94725798 C27,0.871765137 26.1282349,-2.84217094e-14 25.052742,-2.69229083e-14 Z M9.57705688,20.4082031 L6.28919221,20.4082031 L6.28919221,10.5165939 L9.57705688,10.5165939 L9.57705688,20.4082031 Z M7.93322754,9.16589355 L7.9118042,9.16589355 C6.8085022,9.16589355 6.09494019,8.40639495 6.09494019,7.4571762 C6.09494019,6.48653411 6.83033755,5.74804687 7.95506284,5.74804687 C9.07978823,5.74804687 9.77192691,6.48653411 9.79335025,7.4571762 C9.79335025,8.40639495 9.07978823,9.16589355 7.93322754,9.16589355 Z M21.4324036,20.4082031 L18.1449509,20.4082031 L18.1449509,15.1164322 C18.1449509,13.7865372 17.6688996,12.8795471 16.4792862,12.8795471 C15.5710602,12.8795471 15.0301208,13.4913483 14.7924041,14.0819321 C14.7054749,14.2932816 14.6842575,14.5886764 14.6842575,14.8842773 L14.6842575,20.4082031 L11.3965988,20.4082031 C11.3965988,20.4082031 11.4396515,11.4445954 11.3965988,10.5165939 L14.6842575,10.5165939 L14.6842575,11.9171448 C15.1211701,11.2431335 15.9029159,10.2844391 17.6472702,10.2844391 C19.8104095,10.2844391 21.4324036,11.6981735 21.4324036,14.7363739 L21.4324036,20.4082031 Z" id="Shape"></path>
            </g>
        </g>
    </g>
</svg>